<?xml version="1.0" encoding="UTF-8"?>
<svg width="30px" height="30px" viewBox="0 0 30 30" version="1.1" xmlns="http://www.w3.org/2000/svg" xmlns:xlink="http://www.w3.org/1999/xlink">
    <!-- Generator: Sketch 50.2 (55047) - http://www.bohemiancoding.com/sketch -->
    <title>Group</title>
    <desc>Created with Sketch.</desc>
    <defs></defs>
    <g id="Page-1" stroke="none" stroke-width="1" fill="none" fill-rule="evenodd">
        <g id="02-Our-Team" transform="translate(-56.000000, -178.000000)">
            <g id="Group" transform="translate(57.000000, 179.000000)">
                <path d="M22.5,3.5 L5.5,24.5" id="Line" stroke="#171717" stroke-width="1.5" stroke-linecap="square"></path>
                <circle id="Oval" stroke="#000000" stroke-width="1.5" cx="14" cy="14" r="14"></circle>
                <path d="M16.889,15.2880674 C16.57,15.2880674 16.309,15.0270674 16.309,14.7080674 C16.309,14.3890674 16.57,14.1280674 16.889,14.1280674 L21.993,14.1280674 C22.312,14.1280674 22.573,14.3890674 22.573,14.7080674 C22.573,15.0270674 22.312,15.2880674 21.993,15.2880674 L16.889,15.2880674 Z M7.58,11.4890674 L9.175,11.4890674 L9.175,17.8980674 L7.58,17.8980674 C7.261,17.8980674 7,17.6370674 7,17.3180674 L7,12.0690674 C7,11.7500674 7.261,11.4890674 7.58,11.4890674 Z M10.335,11.1410674 L13.67,9.08206737 C14.047,8.85006737 14.569,9.14006737 14.569,9.57506737 L14.569,19.8120674 C14.569,20.3050674 14.018,20.5660674 13.641,20.2760674 L10.335,18.2460674 L10.335,11.1410674 Z M17.179,12.3010674 C16.889,12.4460674 16.541,12.3590674 16.367,12.0690674 C16.222,11.8080674 16.309,11.4600674 16.599,11.2860674 L20.137,9.22706737 C20.427,9.08206737 20.775,9.16906737 20.92,9.45906737 C21.094,9.72006737 21.007,10.0680674 20.717,10.2420674 L17.179,12.3010674 Z M16.599,18.1010674 C16.309,17.9560674 16.222,17.5790674 16.367,17.3180674 C16.541,17.0280674 16.889,16.9410674 17.179,17.0860674 L20.717,19.1450674 C21.007,19.3190674 21.094,19.6670674 20.92,19.9280674 C20.775,20.2180674 20.427,20.3050674 20.137,20.1600674 L16.599,18.1010674 Z" id="Shape" fill="#000000" fill-rule="nonzero"></path>
            </g>
        </g>
    </g>
</svg>